<?xml version="1.0" encoding="UTF-8"?>
<svg id="Layer_1" xmlns="http://www.w3.org/2000/svg" version="1.1" viewBox="0 0 308.29 122.46">
  <!-- Generator: Adobe Illustrator 30.1.0, SVG Export Plug-In . SVG Version: 2.1.1 Build 136)  -->
  <defs>
    <style>
      .st0 {
        fill: #bebdbd;
      }

      .st1 {
        fill: #414242;
      }

      .st2 {
        fill: #231f20;
      }

      .st3 {
        fill: #693592;
      }

      .st4 {
        fill: #47b7e2;
      }

      .st5 {
        fill: #b4e2f6;
      }
    </style>
  </defs>
  <g>
    <rect class="st0" x="6.56" y="114.64" width="104.35" height="3.67"/>
    <rect class="st1" x="6.56" y="109.58" width="104.35" height="3.67"/>
    <rect class="st3" x="6.56" y="104.52" width="104.35" height="3.67"/>
    <rect class="st4" x="6.56" y="99.47" width="104.35" height="3.67"/>
    <rect class="st5" x="6.56" y="94.41" width="104.35" height="3.67"/>
  </g>
  <g>
    <rect class="st0" x="200.01" y="114.64" width="104.35" height="3.67"/>
    <rect class="st1" x="200.01" y="109.58" width="104.35" height="3.67"/>
    <rect class="st3" x="200.01" y="104.52" width="104.35" height="3.67"/>
    <rect class="st4" x="200.01" y="99.47" width="104.35" height="3.67"/>
    <rect class="st5" x="200.01" y="94.41" width="104.35" height="3.67"/>
  </g>
  <g>
    <path class="st2" d="M28.27,44.47c-3.1,0-5.98-.51-8.64-1.52-2.66-1.01-4.96-2.46-6.92-4.33-1.95-1.87-3.47-4.08-4.56-6.6-1.09-2.53-1.64-5.3-1.64-8.32s.54-5.8,1.64-8.32c1.09-2.53,2.62-4.73,4.59-6.6,1.97-1.87,4.29-3.32,6.95-4.33,2.66-1.01,5.54-1.52,8.64-1.52,3.48,0,6.64.6,9.47,1.81,2.83,1.21,5.2,2.98,7.12,5.31l-6.03,5.51c-1.34-1.57-2.86-2.75-4.56-3.56-1.7-.8-3.55-1.21-5.54-1.21-1.88,0-3.6.32-5.17.95-1.57.63-2.93,1.52-4.08,2.67s-2.04,2.51-2.67,4.08c-.63,1.57-.95,3.31-.95,5.22s.32,3.65.95,5.22c.63,1.57,1.52,2.93,2.67,4.08,1.15,1.15,2.51,2.04,4.08,2.67,1.57.63,3.29.95,5.17.95,1.99,0,3.84-.41,5.54-1.23,1.7-.82,3.22-2.02,4.56-3.59l6.03,5.51c-1.91,2.33-4.29,4.11-7.12,5.34-2.83,1.22-6.01,1.84-9.53,1.84Z"/>
    <path class="st2" d="M51.11,43.78V3.6h17.39c3.6,0,6.7.58,9.3,1.75,2.6,1.17,4.61,2.84,6.03,5.02,1.42,2.18,2.12,4.76,2.12,7.75s-.71,5.62-2.12,7.78c-1.42,2.16-3.43,3.81-6.03,4.94-2.6,1.13-5.7,1.69-9.3,1.69h-12.28l4.25-4.02v15.27h-9.36ZM60.47,29.55l-4.25-4.42h11.77c2.83,0,4.97-.61,6.43-1.84,1.45-1.22,2.18-2.95,2.18-5.17s-.73-3.93-2.18-5.14c-1.45-1.21-3.6-1.81-6.43-1.81h-11.77l4.25-4.42v22.79ZM76.71,43.78l-10.1-14.58h9.99l10.1,14.58h-9.99Z"/>
    <path class="st2" d="M102.54,36.32h21.87v7.46h-31.11V3.6h30.36v7.46h-21.12v25.26ZM101.85,19.73h19.34v7.29h-19.34v-7.29Z"/>
    <path class="st2" d="M126.54,43.78L144.39,3.6h9.18l18.02,40.18h-9.76l-14.75-35.47h3.73l-14.75,35.47h-9.53ZM135.55,35.17l2.35-7.06h20.78l2.41,7.06h-25.54Z"/>
    <path class="st2" d="M184.11,43.78V11.18h-12.86V3.6h35.01v7.58h-12.86v32.6h-9.3Z"/>
    <path class="st2" d="M211.25,43.78V3.6h9.36v40.18h-9.36Z"/>
    <path class="st2" d="M242.13,43.78L224.74,3.6h10.1l15.15,35.59h-5.91l15.38-35.59h9.24l-17.39,40.18h-9.18Z"/>
    <path class="st2" d="M282.14,36.32h21.87v7.46h-31.11V3.6h30.36v7.46h-21.12v25.26ZM281.45,19.73h19.34v7.29h-19.34v-7.29Z"/>
  </g>
  <g>
    <path class="st2" d="M7.82,85.27v-36.18h17.42c3.38,0,6.3.55,8.76,1.65,2.46,1.1,4.37,2.68,5.71,4.73,1.34,2.05,2.02,4.47,2.02,7.26s-.67,5.2-2.02,7.24c-1.34,2.03-3.25,3.61-5.71,4.73-2.46,1.12-5.38,1.68-8.76,1.68h-10.65l5.43-5.22v14.11H7.82ZM20.02,72.5l-5.43-5.53h9.87c1.69,0,2.94-.38,3.75-1.14.81-.76,1.21-1.79,1.21-3.1s-.41-2.34-1.21-3.1c-.81-.76-2.06-1.14-3.75-1.14h-9.87l5.43-5.53v19.54Z"/>
    <path class="st2" d="M42.3,85.27l15.82-36.18h11.99l15.82,36.18h-12.61l-11.68-30.39h4.76l-11.68,30.39h-12.4ZM51.7,78.96l3.1-8.79h16.64l3.1,8.79h-22.85Z"/>
    <path class="st2" d="M87.88,85.27v-36.18h17.42c3.38,0,6.3.55,8.76,1.65,2.46,1.1,4.37,2.68,5.71,4.73,1.34,2.05,2.02,4.47,2.02,7.26s-.67,5.19-2.02,7.21-3.25,3.56-5.71,4.63c-2.46,1.07-5.38,1.6-8.76,1.6h-10.65l5.43-5.01v14.11h-12.2ZM100.08,72.5l-5.43-5.53h9.87c1.69,0,2.94-.38,3.75-1.14.81-.76,1.21-1.79,1.21-3.1s-.41-2.34-1.21-3.1c-.81-.76-2.06-1.14-3.75-1.14h-9.87l5.43-5.53v19.54ZM109.54,85.27l-8.89-13.18h12.92l8.99,13.18h-13.02Z"/>
    <path class="st2" d="M134.25,85.27v-26.72h-10.6v-9.46h33.39v9.46h-10.6v26.72h-12.2Z"/>
    <path class="st2" d="M160.19,85.27v-36.18h10.03l18.4,22.02h-4.65v-22.02h11.89v36.18h-10.03l-18.4-22.02h4.65v22.02h-11.89Z"/>
    <path class="st2" d="M213.74,76.07h18.09v9.2h-30.08v-36.18h29.41v9.2h-17.42v17.78ZM212.91,62.53h16.13v8.79h-16.13v-8.79Z"/>
    <path class="st2" d="M236.53,85.27v-36.18h17.42c3.38,0,6.3.55,8.76,1.65,2.46,1.1,4.37,2.68,5.71,4.73,1.34,2.05,2.02,4.47,2.02,7.26s-.67,5.19-2.02,7.21-3.25,3.56-5.71,4.63c-2.46,1.07-5.38,1.6-8.76,1.6h-10.65l5.43-5.01v14.11h-12.2ZM248.73,72.5l-5.43-5.53h9.87c1.69,0,2.94-.38,3.75-1.14.81-.76,1.21-1.79,1.21-3.1s-.41-2.34-1.21-3.1c-.81-.76-2.06-1.14-3.75-1.14h-9.87l5.43-5.53v19.54ZM258.19,85.27l-8.89-13.18h12.92l8.99,13.18h-13.03Z"/>
    <path class="st2" d="M288.53,86.1c-3.03,0-5.96-.35-8.79-1.03-2.83-.69-5.15-1.58-6.98-2.69l3.93-8.89c1.72,1,3.64,1.8,5.76,2.4,2.12.6,4.18.9,6.18.9,1.17,0,2.09-.08,2.76-.23.67-.15,1.16-.38,1.47-.67.31-.29.46-.65.46-1.06,0-.65-.36-1.17-1.08-1.55-.72-.38-1.68-.7-2.87-.96-1.19-.26-2.49-.53-3.9-.83-1.41-.29-2.83-.68-4.26-1.16-1.43-.48-2.74-1.12-3.93-1.91-1.19-.79-2.14-1.83-2.87-3.13-.72-1.29-1.09-2.9-1.09-4.83,0-2.24.63-4.28,1.89-6.12,1.26-1.84,3.13-3.32,5.63-4.42,2.5-1.1,5.61-1.65,9.33-1.65,2.45,0,4.86.26,7.24.78,2.38.52,4.51,1.31,6.41,2.38l-3.67,8.84c-1.79-.9-3.52-1.57-5.2-2.02-1.67-.45-3.3-.67-4.88-.67-1.17,0-2.1.1-2.79.31-.69.21-1.18.48-1.47.83-.29.34-.44.72-.44,1.14,0,.62.36,1.11,1.09,1.47s1.68.66,2.87.9c1.19.24,2.5.5,3.93.78,1.43.28,2.85.65,4.26,1.14,1.41.48,2.71,1.12,3.9,1.91,1.19.79,2.15,1.83,2.87,3.1.72,1.28,1.08,2.86,1.08,4.76,0,2.21-.63,4.23-1.89,6.07-1.26,1.84-3.13,3.33-5.61,4.44-2.48,1.12-5.6,1.68-9.36,1.68Z"/>
  </g>
  <g>
    <path class="st1" d="M131.27,118.89c-3.4,0-6.06-.95-7.97-2.84s-2.87-4.61-2.87-8.14v-13.38h5.58v13.24c0,2.26.47,3.9,1.4,4.91.94,1.02,2.24,1.52,3.9,1.52s3-.51,3.94-1.52c.94-1.01,1.4-2.65,1.4-4.91v-13.24h5.44v13.38c0,3.54-.96,6.25-2.87,8.14s-4.56,2.84-7.94,2.84Z"/>
    <path class="st1" d="M155.5,118.89c-1.92,0-3.76-.26-5.53-.77s-3.19-1.18-4.26-2l1.88-4.17c1,.73,2.21,1.33,3.63,1.8s2.84.7,4.28.7c1.1,0,1.98-.11,2.65-.34.67-.23,1.17-.53,1.49-.91.32-.38.48-.82.48-1.32,0-.64-.25-1.15-.75-1.52-.5-.38-1.17-.68-2-.92s-1.74-.47-2.72-.68c-.98-.22-1.97-.48-2.96-.79-.99-.31-1.91-.72-2.74-1.23-.83-.51-1.49-1.19-1.98-2.02-.49-.83-.74-1.88-.74-3.13,0-1.37.36-2.62,1.09-3.75s1.84-2.03,3.34-2.7c1.49-.67,3.37-1.01,5.63-1.01,1.51,0,2.99.18,4.47.55,1.47.37,2.75.89,3.85,1.57l-1.75,4.17c-1.07-.62-2.18-1.08-3.32-1.39-1.14-.31-2.24-.46-3.29-.46s-1.97.12-2.64.36c-.66.24-1.15.56-1.45.98s-.46.87-.46,1.37c0,.64.25,1.15.75,1.54.5.39,1.16.69,1.98.91.82.22,1.73.43,2.74.65,1,.22,2,.49,2.98.8.98.32,1.88.72,2.7,1.21.82.49,1.49,1.15,2,1.99s.77,1.87.77,3.1c0,1.35-.37,2.58-1.11,3.7s-1.86,2.02-3.37,2.7-3.39,1.03-5.65,1.03Z"/>
    <path class="st1" d="M166.28,118.47l10.64-23.96h5.48l10.75,23.96h-5.82l-8.79-21.15h2.22l-8.79,21.15h-5.68ZM171.65,113.34l1.4-4.21h12.39l1.44,4.21h-15.23Z"/>
  </g>
</svg>