<?xml version="1.0" encoding="UTF-8"?>
<svg id="Layer_1" data-name="Layer 1" xmlns="http://www.w3.org/2000/svg" viewBox="0 0 858.22 169.87">
  <defs>
    <style>
      .cls-1 {
        fill: #b3e2f6;
      }

      .cls-2 {
        fill: #bdbdbd;
      }

      .cls-3 {
        fill: #404141;
      }

      .cls-4 {
        fill: #0b1833;
      }

      .cls-5 {
        fill: #45b7e2;
      }

      .cls-6 {
        fill: #282965;
      }
    </style>
  </defs>
  <g>
    <path class="cls-4" d="m62.64,3.58h20.1s37.24,81.69,37.24,81.69L157.09,3.6h20.1s-.03,93.37-.03,93.37h-10.74s.03-84.77.03-84.77h-2.43l-37.81,81.66h-12.65S75.81,12.17,75.81,12.17h-2.43l-.03,84.76h-10.75l.03-93.36Z"/>
    <path class="cls-4" d="m204.37,29.81h10.22s-.02,67.17-.02,67.17h-10.22s.02-67.17.02-67.17Zm0-26.87h10.22v10.08h-10.22V2.94Z"/>
    <path class="cls-4" d="m239.7,96.99l.03-96.99h10.22s-.02,57.76-.02,57.76l14.73-.26,26.7-27.66h11.95l-29.64,30.75,31.01,36.41h-12.13l-27.72-32.38-14.9.27v32.11s-10.24,0-10.24,0Z"/>
    <path class="cls-4" d="m382.84,89.91l.34,6.58s-19.58,1.88-33.1,1.87c-25.82-.14-33.62-12.24-33.61-34.67,0-25.93,14.57-35.19,35.71-35.18,22.36,0,34.14,9.28,34.13,31.84l-.35,6.45-58.92-.02c0,15.85,5.88,24.32,24.08,24.32,12.65,0,31.72-1.2,31.72-1.2Zm-6.92-29.83c0-18.13-7.45-24.58-23.74-24.59-15.77,0-25.13,6.71-25.14,24.57h48.87Z"/>
    <path class="cls-4" d="m413.89,169.87L0,166.44l5.03-5.03,404.32-.46,26.5-63.9h-11.96s-25.46-67.18-25.46-67.18h10.57s23.03,60.19,23.03,60.19h6.24s23.24-60.17,23.24-60.17h10.57s-58.2,139.99-58.2,139.99Z"/>
    <g>
      <path class="cls-4" d="m500.89,4.67h20.1s37.24,81.69,37.24,81.69l37.11-81.66h20.1s-.03,93.36-.03,93.36h-10.75s.03-84.77.03-84.77h-2.43l-37.81,81.66h-12.65s-37.75-81.69-37.75-81.69h-2.43l-.03,84.76h-10.74s.03-93.36.03-93.36Z"/>
      <path class="cls-4" d="m642.63,30.9h10.22s-.02,67.17-.02,67.17h-10.22s.02-67.17.02-67.17Zm0-26.87h10.22s0,10.08,0,10.08h-10.22s0-10.08,0-10.08Z"/>
      <path class="cls-4" d="m677.95,98.08l.03-96.99h10.22s-.02,57.76-.02,57.76l14.73-.26,26.7-27.66h11.96s-29.65,30.76-29.65,30.76l31.01,36.41h-12.13s-27.72-32.39-27.72-32.39l-14.91.27v32.11s-10.23,0-10.23,0Z"/>
      <path class="cls-4" d="m821.09,91l.35,6.58s-19.58,1.88-33.1,1.87c-25.82-.14-33.62-12.23-33.61-34.67,0-25.93,14.57-35.19,35.71-35.18,22.35,0,34.14,9.28,34.13,31.85l-.35,6.45-58.92-.02c0,15.85,5.88,24.32,24.08,24.32,12.65,0,31.71-1.2,31.71-1.2Zm-6.91-29.82c0-18.13-7.45-24.59-23.74-24.59-15.77,0-25.13,6.71-25.13,24.58h48.87Z"/>
    </g>
  </g>
  <polygon class="cls-1" points="62.38 104.07 57.19 109.25 427.85 110.28 431.94 100.39 62.38 104.07"/>
  <polygon class="cls-5" points="50.29 116.15 45.08 121.37 422.7 122.39 426.79 112.5 50.29 116.15"/>
  <polygon class="cls-6" points="37.96 128.27 32.75 133.48 417.85 134.5 421.93 124.62 37.96 128.27"/>
  <polygon class="cls-3" points="25.66 140.38 20.45 145.59 412.74 146.61 416.83 136.73 25.66 140.38"/>
  <polygon class="cls-2" points="13.74 152.5 8.54 157.7 407.53 158.73 411.62 148.84 13.74 152.5"/>
  <g>
    <path class="cls-5" d="m505.62,160.77l.31,5.18s-17.16,1.47-29,1.47c-22.62-.11-29.45-9.6-29.45-27.2,0-20.35,12.75-27.62,31.27-27.62,19.59,0,29.91,7.28,29.91,24.99l-.31,5.05h-51.62c0,12.45,5.16,19.08,21.1,19.08,11.08,0,27.78-.95,27.78-.95Zm-6.07-23.41c0-14.22-6.53-19.29-20.8-19.29s-22.01,5.27-22.01,19.29h42.81Z"/>
    <path class="cls-5" d="m529.33,113.64l18.97,47.24h6.08l19.73-47.24h9.42l-22.17,52.72h-19.88l-22.17-52.72h10.02Z"/>
    <path class="cls-5" d="m653.07,160.77l.31,5.18s-17.16,1.47-29,1.47c-22.62-.11-29.45-9.6-29.45-27.2,0-20.35,12.75-27.62,31.27-27.62,19.59,0,29.91,7.28,29.91,24.99l-.3,5.05h-51.62c0,12.45,5.16,19.08,21.1,19.08,11.08,0,27.78-.95,27.78-.95Zm-6.07-23.41c0-14.22-6.53-19.29-20.8-19.29s-22.01,5.27-22.01,19.29h42.81Z"/>
    <path class="cls-5" d="m674.05,166.36v-52.72h8.96v3.91s12.75-4.96,24.74-4.96c20.8,0,25.36,6.74,25.36,26.03v27.73h-9.11v-27.4c0-15.5-2.43-20.68-17.61-20.68-11.84,0-23.38,4.43-23.38,4.43v43.65h-8.96Z"/>
    <path class="cls-5" d="m767.28,119.23v26.05c0,13.18,1.21,16.56,12.15,16.56,4.25,0,13.97-.74,13.97-.74l.61,5.38s-10.02,1.06-15.33,1.06c-15.03,0-20.5-3.9-20.5-19.08v-29.22h-11.23v-5.59h11.23v-12.16h9.11v12.16h25.35v5.59h-25.35Z"/>
    <path class="cls-5" d="m855.34,120.08s-16.24-1.69-26.26-1.69c-9.42,0-17.92,1.8-17.92,8.97,0,5.48,3.79,7.06,20.34,8.97,19.43,2.21,26.72,4.63,26.72,14.76,0,12.33-11.09,16.34-29.3,16.34-9.26,0-25.96-1.89-25.96-1.89l.61-5.59s17,1.78,24.75,1.78c13.05,0,20.64-2.1,20.64-10.32,0-6.33-4.55-7.7-21.55-9.49-17.46-1.91-25.51-4.12-25.51-14.35,0-11.49,13.66-14.87,26.87-14.87,11.39,0,26.87,1.8,26.87,1.8l-.31,5.59Z"/>
  </g>
</svg>