<?xml version="1.0" encoding="UTF-8"?>
<svg id="Layer_1" xmlns="http://www.w3.org/2000/svg" version="1.1" viewBox="0 0 440.91 206.64">
  <!-- Generator: Adobe Illustrator 30.1.0, SVG Export Plug-In . SVG Version: 2.1.1 Build 136)  -->
  <defs>
    <style>
      .st0 {
        fill: none;
        stroke: #707071;
        stroke-width: 3px;
      }

      .st1 {
        fill: #d2b471;
      }

      .st2 {
        fill: #707071;
      }
    </style>
  </defs>
  <path d="M296.45,56h-13.23l-6.77-27.11c-.1-.38-.22-.9-.35-1.58s-.3-1.44-.48-2.29-.35-1.75-.52-2.67-.34-1.83-.49-2.71-.28-1.69-.4-2.43-.21-1.36-.21-1.81c-.05.45-.13,1-.24,1.78s-.25,1.55-.4,2.41-.3,1.76-.47,2.69-.33,1.82-.49,2.67-.32,1.63-.47,2.33-.27,1.25-.37,1.65l-6.7,27h-13.3L238.33,1h11.46l6.21,30c.07.4.18,1,.32,1.75s.29,1.62.46,2.58.36,2,.55,3,.37,2.09.55,3.09l.48,2.8c.15.86.27,1.57.34,2.12.08-.55.18-1.25.32-2.1s.28-1.76.43-2.73.32-2,.51-3,.36-2,.51-2.87.29-1.68.43-2.37.25-1.19.32-1.49l7.67-30.78h10.23l7.64,30.79c.07.3.18.8.31,1.49s.29,1.48.46,2.37.33,1.84.5,2.87.35,2,.51,3l.45,2.73c.14.85.25,1.55.32,2.1.08-.55.18-1.26.32-2.12s.3-1.8.47-2.8.36-2,.55-3.09.37-2,.54-3,.33-1.81.47-2.58.25-1.35.32-1.75l6.24-30h11.47l-13.24,54.99Z"/>
  <path d="M348,56l-3.76-13.09h-18.98l-3.8,13.09h-11.77L327.55.77h14.25l17.94,55.23h-11.74ZM341.5,33.11l-3.53-12c-.15-.46-.38-1.19-.68-2.22s-.62-2.16-1-3.41-.66-2.48-1-3.74-.51-2.31-.64-3.19c-.1.55-.23,1.22-.39,2-.17.75-.35,1.55-.57,2.39s-.43,1.69-.65,2.54-.44,1.65-.64,2.4-.39,1.42-.55,2l-.36,1.28-3.49,12,13.5-.05Z"/>
  <path d="M366.65,56V1h11.66v45.34h20v9.66h-31.66Z"/>
  <path d="M407.86,56V1h11.66v45.34h20v9.66h-31.66Z"/>
  <path d="M264.73,92.28c.02,1.8-.32,3.59-1,5.25-.65,1.54-1.64,2.91-2.91,4-1.38,1.15-2.97,2.01-4.69,2.53-2.06.63-4.21.93-6.37.9-2.04,0-4.08-.22-6.08-.66-1.89-.42-3.71-1.1-5.42-2v-8.53c.95.45,1.91.9,2.88,1.32s2,.81,3,1.14c.98.33,1.98.61,3,.81.99.19,1.99.29,3,.29.88.02,1.76-.09,2.6-.34.65-.18,1.24-.51,1.75-.95.45-.39.8-.89,1-1.45.21-.6.32-1.23.31-1.86.02-.75-.16-1.49-.51-2.15-.38-.67-.88-1.26-1.46-1.76-.7-.6-1.46-1.13-2.26-1.58-.88-.52-1.86-1.06-2.95-1.64-.91-.47-1.93-1-3.06-1.72-1.16-.7-2.24-1.54-3.19-2.51-1.04-1.05-1.89-2.28-2.51-3.62-.71-1.6-1.05-3.35-1-5.1-.02-1.79.32-3.56,1-5.21.61-1.49,1.55-2.82,2.75-3.89,1.26-1.1,2.73-1.92,4.32-2.42,1.84-.57,3.76-.85,5.69-.83,1.03,0,2.05.07,3.07.21,1.01.14,2.01.33,3,.59,1,.26,2,.58,3,.95s2,.81,3.06,1.31l-3,7.16c-.9-.42-1.73-.79-2.5-1.1-.74-.31-1.49-.58-2.26-.8-.7-.22-1.42-.38-2.15-.49-.7-.11-1.41-.17-2.12-.17-1.36-.14-2.71.31-3.72,1.23-.84.88-1.29,2.07-1.23,3.29-.01.67.11,1.33.37,1.94.28.61.69,1.15,1.2,1.58.65.57,1.35,1.08,2.1,1.51.87.52,1.91,1.1,3.14,1.76,1.48.79,2.85,1.59,4.1,2.42,1.18.77,2.27,1.69,3.22,2.73.9,1,1.61,2.15,2.09,3.4.52,1.43.78,2.94.74,4.46Z"/>
  <path d="M288.64,104.34h-9.18v-35.75h-10.89v-7.67h30.94v7.67h-10.87v35.75Z"/>
  <path d="M315.4,87.68v16.66h-9.21v-43.42h11.88c5.56,0,9.67,1.08,12.33,3.23,2.65,2.14,4,5.41,4,9.78.02,1.36-.18,2.71-.59,4-.37,1.15-.9,2.23-1.59,3.22-.65.92-1.42,1.76-2.29,2.47-.83.69-1.74,1.28-2.71,1.76,2.2,3.53,4.17,6.68,5.91,9.45.75,1.19,1.48,2.34,2.18,3.47l1.89,3c.55.89,1,1.61,1.36,2.14l.51.83h-10.25l-9.41-16.66-4.01.07ZM315.4,80.2h2.49c2.56,0,4.39-.51,5.5-1.53,1.17-1.19,1.78-2.83,1.66-4.5,0-2.06-.59-3.53-1.78-4.4-1.19-.87-3.03-1.31-5.53-1.3h-2.34v11.73Z"/>
  <path d="M369.51,104.34h-25v-43.42h25v7.55h-15.8v9.53h14.7v7.54h-14.7v11.2h15.8v7.6Z"/>
  <path d="M403.57,104.34h-25v-43.42h25v7.55h-15.8v9.53h14.7v7.54h-14.7v11.2h15.8v7.6Z"/>
  <path d="M428.46,104.34h-9.18v-35.75h-10.9v-7.67h30.95v7.67h-10.87v35.75Z"/>
  <path class="st2" d="M262.05,151.09h-24.05v-41.69h24v7.24h-15.13v9.15h14.13v7.21h-14.13v10.75h15.18v7.34Z"/>
  <path class="st2" d="M292.19,109.4h8.92l-13,41.69h-9.64l-13-41.69h8.92l7.07,25.09c.1.33.23.87.39,1.63s.33,1.59.51,2.51.36,1.82.53,2.74.3,1.68.4,2.3c.1-.62.23-1.39.4-2.3s.35-1.82.54-2.73.38-1.73.56-2.49.31-1.32.41-1.66l6.99-25.09Z"/>
  <path class="st2" d="M330.37,151.09h-24v-41.69h24v7.24h-15.17v9.15h14.12v7.21h-14.12v10.75h15.17v7.34Z"/>
  <path class="st2" d="M374.29,151.09h-11.21l-16.39-31.54h-.26c.11,1.46.21,2.92.28,4.36.08,1.24.14,2.54.19,3.89s.07,2.59.07,3.67v19.62h-7.9v-41.69h11.15l16.37,31.22h.17c-.05-1.44-.12-2.87-.2-4.27,0-.61,0-1.23-.07-1.87s-.05-1.28-.07-1.91,0-1.25,0-1.84v-21.33h7.93l-.06,41.69Z"/>
  <path class="st2" d="M400,151.09h-8.8v-34.34h-10.46v-7.35h29.71v7.35h-10.45v34.34Z"/>
  <path class="st2" d="M439.71,139.51c.02,1.71-.3,3.41-.95,5-.63,1.47-1.58,2.78-2.8,3.82-1.32,1.1-2.85,1.93-4.5,2.43-1.98.61-4.05.9-6.12.86-1.96,0-3.92-.21-5.83-.63-1.81-.39-3.56-1.03-5.21-1.88v-8.21c.91.44,1.84.86,2.77,1.27s1.88.77,2.84,1.09c.94.32,1.9.58,2.88.77.94.19,1.9.29,2.86.29.85.02,1.69-.09,2.5-.33.62-.18,1.19-.49,1.68-.91.42-.38.75-.86.94-1.4.21-.57.31-1.17.3-1.78.01-.72-.16-1.43-.5-2.07-.36-.64-.84-1.21-1.4-1.68-.67-.57-1.39-1.09-2.16-1.53-.85-.49-1.8-1-2.84-1.57-.88-.45-1.85-1-2.94-1.65-1.12-.67-2.14-1.48-3.06-2.41-1-1.01-1.81-2.19-2.41-3.48-.7-1.53-1.04-3.21-1-4.89-.03-1.71.29-3.41.92-5,.59-1.43,1.49-2.71,2.64-3.74,1.21-1.05,2.62-1.84,4.15-2.32,1.77-.56,3.61-.83,5.46-.8,1,0,2.01.06,3,.2.96.13,1.92.32,2.86.57.96.25,1.9.56,2.83.91.95.36,1.93.78,2.94,1.25l-2.85,6.88c-.86-.4-1.66-.75-2.4-1.06s-1.46-.56-2.16-.77c-.68-.2-1.37-.36-2.07-.47-.66-.1-1.33-.15-2-.15-1.25-.09-2.48.34-3.41,1.18-.81.84-1.24,1.98-1.18,3.15-.01.64.11,1.28.35,1.87.27.58.66,1.1,1.15,1.52.62.55,1.29,1.04,2,1.46.83.49,1.83,1,3,1.68,1.42.76,2.74,1.54,3.93,2.32,1.14.77,2.17,1.67,3.08,2.7.85.96,1.53,2.06,2,3.26.49,1.36.73,2.8.71,4.25Z"/>
  <path d="M111.17,119.12h-17.71v30.5h-30.3v-30.5H2.36v-21.64L64.87,2.48h28.59v92.52h17.71v24.12ZM63.16,95v-25c0-.87,0-2.13.05-3.77s.08-3.51.15-5.59.15-4.23.25-6.44.2-4.33.31-6.34c.11-2.01.2-3.78.3-5.29s.18-2.6.25-3.27h-.91c-1.2,2.82-2.56,5.82-4.07,9-1.56,3.24-3.29,6.4-5.19,9.46l-24.56,37.24h33.42Z"/>
  <path d="M168.46.55c5.84-.03,11.66.71,17.31,2.21,5.12,1.34,9.97,3.59,14.29,6.65,4.05,2.9,7.39,6.69,9.76,11.07,2.51,4.81,3.76,10.18,3.63,15.6.06,4.09-.62,8.15-2,12-1.31,3.53-3.18,6.82-5.54,9.76-2.41,2.98-5.22,5.6-8.36,7.8-3.32,2.35-6.82,4.44-10.46,6.25,3.93,2.1,7.74,4.42,11.42,6.94,3.63,2.47,6.96,5.36,9.92,8.61,2.87,3.18,5.22,6.8,6.94,10.72,1.8,4.2,2.7,8.74,2.63,13.31.08,5.74-1.16,11.43-3.63,16.61-2.39,4.94-5.86,9.27-10.16,12.68-4.66,3.65-9.97,6.38-15.65,8.06-6.52,1.93-13.28,2.88-20.08,2.81-7.14.1-14.26-.81-21.14-2.71-5.65-1.55-10.95-4.18-15.6-7.75-4.17-3.28-7.47-7.53-9.62-12.38-2.24-5.21-3.36-10.84-3.27-16.51-.07-4.63.68-9.23,2.22-13.59,1.4-3.92,3.43-7.59,6-10.87,2.57-3.25,5.58-6.13,8.93-8.56,3.47-2.5,7.15-4.69,11-6.54-3.24-2.04-6.34-4.31-9.27-6.79-2.83-2.39-5.35-5.14-7.49-8.16-2.14-3.04-3.82-6.38-5-9.91-1.28-3.87-1.91-7.92-1.86-12-.13-5.34,1.11-10.62,3.62-15.33,2.46-4.39,5.88-8.18,10-11.07,4.36-3.08,9.23-5.35,14.39-6.7,5.57-1.49,11.31-2.23,17.07-2.21ZM147.62,110.47c-.03,2.53.41,5.04,1.31,7.4.84,2.19,2.16,4.17,3.87,5.78,1.84,1.69,4.02,2.98,6.39,3.78,2.86.95,5.85,1.41,8.86,1.36,7.05,0,12.32-1.67,15.81-5,3.49-3.33,5.24-7.71,5.23-13.13.04-2.64-.56-5.25-1.76-7.6-1.21-2.28-2.73-4.39-4.53-6.24-1.91-1.97-4.02-3.74-6.29-5.29-2.35-1.61-4.68-3.16-7-4.63l-2.21-1.41c-2.81,1.39-5.5,2.99-8.06,4.79-2.31,1.61-4.41,3.5-6.24,5.64-1.69,2-3.04,4.26-4,6.7-.95,2.51-1.41,5.17-1.38,7.85ZM168.25,23.3c-2.1-.02-4.2.32-6.19,1-1.83.62-3.5,1.61-4.93,2.91-1.42,1.35-2.53,2.98-3.27,4.79-.83,2.01-1.25,4.17-1.21,6.34-.06,2.49.37,4.97,1.26,7.29.82,1.98,1.98,3.79,3.42,5.37,1.48,1.62,3.16,3.04,5,4.23,1.91,1.24,3.94,2.46,6.09,3.67,2.04-1.06,4.02-2.23,5.93-3.52,1.84-1.25,3.52-2.72,5-4.38,1.45-1.66,2.63-3.55,3.47-5.59.91-2.27,1.35-4.7,1.31-7.14.05-2.14-.34-4.28-1.13-6.27-.75-1.8-1.88-3.42-3.32-4.74-1.45-1.3-3.15-2.29-5-2.91-2.07-.71-4.24-1.06-6.43-1.05Z"/>
  <line class="st0" x1="2.08" y1="167.87" x2="439.47" y2="167.87"/>
  <path class="st1" d="M20.71,204.42h-5v-10.15H7.71v10.15H2.71v-23.51h5v9.22h8v-9.22h5v23.51Z"/>
  <path class="st1" d="M35.44,204.42h-10.69v-2.83l2.86-1.32v-15.21l-2.86-1.32v-2.83h10.69v2.83l-2.86,1.32v15.21l2.86,1.32v2.83Z"/>
  <path class="st1" d="M52.35,197.89c.02.97-.17,1.94-.54,2.84-.36.83-.9,1.57-1.58,2.16-.75.62-1.61,1.09-2.54,1.37-1.12.34-2.28.5-3.45.48-1.11,0-2.21-.11-3.29-.35-1.03-.22-2.02-.58-2.95-1.06v-4.63c.51.24,1,.48,1.56.71s1.06.44,1.6.62c.53.18,1.07.33,1.62.44.53.1,1.08.16,1.62.16.48.01.95-.05,1.41-.19.37-.09.71-.27,1-.51.24-.22.42-.49.53-.79.11-.32.16-.66.16-1,0-.4-.09-.8-.28-1.16-.2-.36-.47-.69-.79-.95-.38-.33-.78-.62-1.22-.86-.47-.28-1-.57-1.6-.89s-1-.56-1.65-.93c-.64-.37-1.23-.82-1.76-1.35-.57-.58-1.03-1.26-1.36-2-.39-.87-.58-1.81-.55-2.76-.01-.96.16-1.92.52-2.82.34-.8.84-1.53,1.49-2.11.68-.59,1.48-1.04,2.34-1.31,1-.31,2.04-.46,3.08-.45.56,0,1.12.04,1.67.11.54.08,1.08.2,1.61.34.54.14,1.08.31,1.6.51.54.2,1.09.44,1.66.71l-1.61,3.87c-.48-.22-.93-.42-1.35-.59-.4-.17-.81-.31-1.22-.43-.38-.12-.77-.21-1.17-.27-.38-.06-.76-.09-1.15-.09-.7-.05-1.4.2-1.92.67-.46.48-.7,1.12-.67,1.78-.02.73.29,1.43.85,1.91.35.31.73.59,1.14.82.47.28,1,.6,1.7.95s1.54.86,2.22,1.31c.64.42,1.22.92,1.74,1.48.5.54.9,1.17,1.18,1.85.26.78.38,1.59.35,2.41Z"/>
  <path class="st1" d="M65.29,204.42h-5v-19.36h-5.9v-4.15h16.79v4.15h-5.89v19.36Z"/>
  <path class="st1" d="M94.84,192.63c.02,1.69-.19,3.37-.64,5-.38,1.39-1.03,2.7-1.93,3.83-.88,1.05-2,1.88-3.27,2.42-3.02,1.15-6.36,1.15-9.38,0-1.28-.54-2.4-1.39-3.28-2.46-.9-1.13-1.56-2.44-1.93-3.84-.44-1.63-.66-3.31-.64-5-.02-1.69.2-3.37.64-5,.37-1.39,1.03-2.68,1.94-3.8.88-1.07,2.01-1.9,3.29-2.44,3.02-1.15,6.36-1.15,9.38,0,1.27.54,2.39,1.37,3.27,2.44.9,1.12,1.56,2.43,1.93,3.82.45,1.64.65,3.33.62,5.03ZM78.84,192.63c-.01,1.12.1,2.24.33,3.33.18.88.52,1.73,1,2.49.43.65,1.02,1.18,1.71,1.55.75.38,1.57.56,2.41.54.85.02,1.69-.16,2.45-.54.68-.37,1.26-.91,1.67-1.57.48-.76.82-1.61,1-2.49.41-2.2.41-4.45,0-6.65-.18-.89-.52-1.73-1-2.5-.41-.66-.98-1.2-1.66-1.57-.75-.39-1.59-.57-2.43-.55-.84-.02-1.68.17-2.43.55-.69.37-1.28.91-1.7,1.57-.48.77-.82,1.61-1,2.5-.23,1.1-.33,2.22-.31,3.34h-.04Z"/>
  <path class="st1" d="M104.68,195.4v9h-5v-23.49h6.43c3,0,5.24.58,6.67,1.74,1.55,1.33,2.37,3.32,2.22,5.35,0,.74-.1,1.48-.32,2.19-.2.62-.49,1.21-.86,1.75-.35.5-.77.94-1.24,1.33-.45.38-.95.72-1.47,1,1.19,1.91,2.25,3.61,3.2,5.11.4.65.8,1.27,1.18,1.88l1,1.64c.3.49.55.87.74,1.16l.27.45h-5.5l-5.1-9-2.22-.11ZM104.68,191.35h1.32c1.07.1,2.14-.19,3-.83.64-.65.97-1.53.9-2.44.08-.91-.29-1.8-1-2.38-.9-.54-1.95-.79-3-.71h-1.27l.05,6.36Z"/>
  <path class="st1" d="M129.24,204.42h-10.69v-2.83l2.86-1.32v-15.21l-2.86-1.32v-2.83h10.69v2.83l-2.86,1.32v15.21l2.86,1.32v2.83Z"/>
  <path class="st1" d="M143.25,184.72c-.88-.02-1.74.17-2.53.56-.74.37-1.37.92-1.85,1.59-.53.76-.92,1.62-1.14,2.52-.27,1.09-.4,2.22-.38,3.34-.02,1.13.1,2.25.34,3.35.19.88.55,1.72,1.06,2.47.47.66,1.11,1.18,1.84,1.52.84.37,1.75.55,2.66.52.97,0,1.93-.11,2.87-.32,1.06-.24,2.11-.55,3.13-.91v4.18c-.52.21-1,.4-1.53.55-.51.15-1.02.27-1.54.37-.53.09-1.07.16-1.62.21-.55.05-1.15.07-1.78.07-1.61.04-3.22-.25-4.71-.86-1.28-.54-2.41-1.38-3.3-2.45-.9-1.11-1.56-2.41-1.93-3.79-.43-1.61-.64-3.27-.62-4.94-.02-1.66.23-3.31.72-4.9.44-1.41,1.16-2.72,2.12-3.84.95-1.08,2.14-1.93,3.46-2.5,1.5-.62,3.11-.92,4.73-.89,1.18,0,2.36.15,3.51.44,1.16.29,2.29.7,3.37,1.22l-1.61,4.05c-.86-.41-1.75-.78-2.65-1.09-.84-.3-1.73-.46-2.62-.47Z"/>
  <path class="st1" d="M174.9,180.91h5l-7.33,23.51h-5.44l-7.31-23.51h5l4,14.15c0,.19.12.49.22.92s.18.9.29,1.41.2,1,.29,1.55.17.95.23,1.3c0-.35.13-.79.22-1.3s.2-1,.31-1.54.21-1,.31-1.4.18-.74.24-.94l3.97-14.15Z"/>
  <path class="st1" d="M196.44,204.42h-13.55v-23.51h13.55v4.09h-8.56v5.17h8v4.08h-8v6.07h8.56v4.1Z"/>
  <path class="st1" d="M221.2,204.42h-6.32l-9.25-17.79h-.14c.06.83.12,1.65.16,2.47s.08,1.42.11,2.19,0,1.46,0,2.07v11.06h-4.46v-23.51h6.29l9.23,17.61h.1c0-.81-.07-1.62-.12-2.41v-15.2h4.47l-.07,23.51Z"/>
  <path class="st1" d="M245,180.91v15.21c0,1.16-.18,2.31-.56,3.41-.35,1.03-.93,1.97-1.69,2.74-.8.8-1.77,1.42-2.83,1.82-1.28.45-2.64.68-4,.65-1.31.03-2.61-.18-3.84-.61-1.05-.38-1.99-.98-2.78-1.77-.76-.78-1.33-1.71-1.69-2.74-.4-1.14-.6-2.35-.58-3.56v-15.15h5v14.78c-.02.75.07,1.5.25,2.23.15.55.41,1.07.77,1.51.34.39.77.69,1.26.86.57.19,1.17.28,1.77.27,1.15.11,2.29-.35,3.05-1.22.7-1.09,1.03-2.38.94-3.68v-14.75h4.93Z"/>
  <path class="st1" d="M264.26,204.42h-13.54v-23.51h13.54v4.09h-8.56v5.17h8v4.08h-8v6.07h8.56v4.1Z"/>
  <path class="st1" d="M277.72,204.42v-23.51h5v19.4h8.56v4.11h-13.56Z"/>
  <path class="st1" d="M315.39,192.63c.02,1.69-.2,3.37-.64,5-.38,1.4-1.04,2.7-1.94,3.83-.88,1.07-2.01,1.92-3.29,2.46-3.02,1.15-6.35,1.15-9.37,0-1.28-.54-2.4-1.39-3.28-2.46-.9-1.13-1.56-2.44-1.93-3.84-.45-1.63-.66-3.31-.64-5-.02-1.69.19-3.37.64-5,.37-1.39,1.03-2.68,1.93-3.8.89-1.06,2.01-1.9,3.29-2.44,1.5-.6,3.1-.9,4.71-.86,1.6-.04,3.2.26,4.68.86,1.27.54,2.39,1.37,3.27,2.44.9,1.13,1.56,2.43,1.93,3.82.44,1.63.66,3.31.64,4.99ZM299.39,192.63c0,1.12.1,2.23.32,3.33.18.88.52,1.73,1,2.49.42.65,1,1.19,1.68,1.57.75.38,1.57.56,2.41.54.85.02,1.7-.16,2.46-.54.68-.37,1.26-.91,1.67-1.57.48-.76.82-1.61,1-2.49.43-2.2.43-4.45,0-6.65-.18-.89-.52-1.73-1-2.5-.41-.66-.98-1.2-1.66-1.57-1.54-.73-3.32-.73-4.86,0-.69.37-1.28.91-1.7,1.57-.48.77-.81,1.61-1,2.5-.21,1.09-.3,2.21-.28,3.32h-.04Z"/>
  <path class="st1" d="M330.23,184.72c-.88-.02-1.74.18-2.53.56-.74.37-1.37.92-1.85,1.59-.53.76-.92,1.62-1.14,2.52-.26,1.09-.39,2.22-.38,3.34-.02,1.13.1,2.25.34,3.35.19.88.55,1.72,1.06,2.47.47.66,1.11,1.18,1.84,1.52.84.37,1.75.55,2.66.52.97,0,1.93-.11,2.87-.32,1.06-.24,2.11-.55,3.13-.91v4.18c-.52.21-1,.4-1.53.55-.51.15-1.02.27-1.54.37-.53.09-1.07.16-1.62.21-.55.05-1.14.07-1.78.07-1.61.04-3.22-.25-4.71-.86-1.28-.54-2.41-1.38-3.3-2.45-.9-1.12-1.56-2.41-1.93-3.79-.43-1.61-.64-3.27-.62-4.94-.02-1.66.23-3.31.72-4.9.43-1.39,1.14-2.68,2.08-3.8.95-1.08,2.14-1.93,3.46-2.5,1.5-.62,3.11-.92,4.73-.89,1.18,0,2.36.15,3.51.44,1.16.29,2.29.7,3.37,1.22l-1.61,4.05c-.86-.41-1.75-.78-2.65-1.09-.83-.31-1.7-.48-2.58-.51Z"/>
  <path class="st1" d="M354.64,204.42l-1.6-5.59h-8.11l-1.62,5.59h-5l7.64-23.61h6.05l7.67,23.61h-5.03ZM351.88,194.64l-1.51-5.14c-.07-.2-.17-.51-.29-.95s-.27-.93-.41-1.46-.29-1.06-.41-1.6-.22-1-.28-1.36c0,.23-.1.51-.17.83s-.15.67-.24,1-.18.73-.28,1.09-.19.71-.27,1l-.24.85-.15.55-1.49,5.14,5.74.05Z"/>
  <path class="st1" d="M371.21,204.42h-5v-19.36h-5.9v-4.15h16.79v4.15h-5.89v19.36Z"/>
  <path class="st1" d="M389.51,204.42h-10.69v-2.83l2.86-1.32v-15.21l-2.86-1.32v-2.83h10.69v2.83l-2.86,1.32v15.21l2.86,1.32v2.83Z"/>
  <path class="st1" d="M413.57,192.63c.02,1.69-.19,3.37-.63,5-.38,1.4-1.04,2.7-1.94,3.83-.89,1.07-2.01,1.91-3.29,2.46-3.02,1.15-6.36,1.15-9.38,0-1.27-.55-2.4-1.39-3.28-2.46-.9-1.14-1.55-2.44-1.93-3.84-.44-1.63-.65-3.31-.63-5-.02-1.69.19-3.37.63-5,.38-1.39,1.04-2.68,1.94-3.8.89-1.06,2.01-1.9,3.29-2.44,1.49-.6,3.09-.9,4.7-.86,1.6-.04,3.2.25,4.68.86,1.27.54,2.4,1.38,3.28,2.44.89,1.13,1.55,2.43,1.93,3.82.44,1.63.65,3.31.63,4.99ZM397.62,192.63c0,1.12.1,2.23.32,3.33.17.89.51,1.73,1,2.49.42.66,1,1.2,1.68,1.57.75.38,1.57.56,2.41.54.85.02,1.7-.16,2.46-.54.68-.37,1.26-.91,1.67-1.57.48-.76.82-1.61,1-2.49.43-2.2.43-4.45,0-6.65-.19-.89-.52-1.73-1-2.5-.41-.66-.99-1.2-1.67-1.57-1.53-.73-3.32-.73-4.85,0-.69.37-1.28.91-1.7,1.57-.48.76-.82,1.61-1,2.5-.22,1.09-.33,2.21-.32,3.32Z"/>
  <path class="st1" d="M438.29,204.42h-6.29l-9.25-17.79h-.14c.06.83.12,1.65.16,2.47s.08,1.42.1,2.19,0,1.46,0,2.07v11.06h-4.45v-23.51h6.29l9.29,17.61h.1c0-.81-.07-1.62-.12-2.41v-15.2h4.47l-.16,23.51Z"/>
</svg>